<svg width="26" height="26" viewBox="0 0 26 26" fill="none" xmlns="http://www.w3.org/2000/svg">
<path d="M17.7394 3.52066C18.9954 3.52441 20.1988 4.025 21.0869 4.9131C21.975 5.80119 22.4756 7.00463 22.4793 8.26059V17.7394C22.4756 18.9954 21.975 20.1988 21.0869 21.0869C20.1988 21.975 18.9954 22.4756 17.7394 22.4793H8.26059C7.00463 22.4756 5.80119 21.975 4.9131 21.0869C4.025 20.1988 3.52441 18.9954 3.52066 17.7394V8.26059C3.52441 7.00463 4.025 5.80119 4.9131 4.9131C5.80119 4.025 7.00463 3.52441 8.26059 3.52066H17.7394ZM17.7394 1.625H8.26059C4.61094 1.625 1.625 4.61094 1.625 8.26059V17.7394C1.625 21.3891 4.61094 24.375 8.26059 24.375H17.7394C21.3891 24.375 24.375 21.3891 24.375 17.7394V8.26059C24.375 4.61094 21.3891 1.625 17.7394 1.625Z" fill="black"/>
<path d="M19.1613 8.2605C18.8801 8.2605 18.6052 8.17711 18.3713 8.02087C18.1375 7.86463 17.9553 7.64257 17.8476 7.38275C17.74 7.12294 17.7119 6.83705 17.7667 6.56123C17.8216 6.28541 17.957 6.03206 18.1559 5.83321C18.3547 5.63435 18.6081 5.49893 18.8839 5.44407C19.1597 5.38921 19.4456 5.41736 19.7054 5.52498C19.9652 5.6326 20.1873 5.81485 20.3435 6.04867C20.4998 6.2825 20.5832 6.5574 20.5832 6.83862C20.5836 7.02546 20.5471 7.21054 20.4757 7.38323C20.4044 7.55592 20.2997 7.71282 20.1676 7.84494C20.0355 7.97705 19.8786 8.08177 19.7059 8.15308C19.5332 8.2244 19.3481 8.2609 19.1613 8.2605ZM13 9.20808C13.75 9.20808 14.4831 9.43046 15.1066 9.84712C15.7302 10.2638 16.2162 10.856 16.5032 11.5488C16.7902 12.2417 16.8653 13.0041 16.719 13.7397C16.5727 14.4752 16.2115 15.1508 15.6812 15.6811C15.1509 16.2114 14.4753 16.5726 13.7398 16.7189C13.0042 16.8652 12.2418 16.7901 11.5489 16.5031C10.8561 16.2161 10.2639 15.7301 9.84721 15.1065C9.43055 14.483 9.20817 13.7499 9.20817 12.9999C9.20924 11.9946 9.60908 11.0307 10.32 10.3199C11.0308 9.60899 11.9947 9.20915 13 9.20808ZM13 7.31241C11.8751 7.31241 10.7755 7.64598 9.8402 8.27093C8.90489 8.89588 8.17591 9.78415 7.74544 10.8234C7.31496 11.8627 7.20233 13.0062 7.42179 14.1095C7.64124 15.2128 8.18292 16.2262 8.97833 17.0216C9.77374 17.817 10.7872 18.3587 11.8904 18.5781C12.9937 18.7976 14.1373 18.685 15.1765 18.2545C16.2158 17.824 17.104 17.095 17.729 16.1597C18.3539 15.2244 18.6875 14.1248 18.6875 12.9999C18.6875 11.4915 18.0883 10.0449 17.0217 8.97824C15.9551 7.91163 14.5084 7.31241 13 7.31241Z" fill="black"/>
</svg>
